<svg xmlns="http://www.w3.org/2000/svg" width="777" height="272" viewBox="0 0 777 272" version="1.1"><path d="M 77.728 79.722 C 79.503 79.943, 82.653 79.946, 84.728 79.730 C 86.802 79.513, 85.350 79.333, 81.500 79.328 C 77.650 79.324, 75.952 79.501, 77.728 79.722 M 205.250 79.716 C 206.762 79.945, 209.238 79.945, 210.750 79.716 C 212.262 79.487, 211.025 79.300, 208 79.300 C 204.975 79.300, 203.738 79.487, 205.250 79.716 M 533.250 79.728 C 535.313 79.944, 538.688 79.944, 540.750 79.728 C 542.813 79.513, 541.125 79.336, 537 79.336 C 532.875 79.336, 531.188 79.513, 533.250 79.728 M 643.728 79.722 C 645.503 79.943, 648.653 79.946, 650.728 79.730 C 652.802 79.513, 651.350 79.333, 647.500 79.328 C 643.650 79.324, 641.952 79.501, 643.728 79.722 M 92.500 81 C 94.150 81.420, 96.400 81.772, 97.500 81.782 C 99.067 81.797, 98.959 81.627, 97 81 C 95.625 80.560, 93.375 80.208, 92 80.218 C 89.754 80.235, 89.805 80.314, 92.500 81 M 286.242 141.250 L 286.484 201.500 286.750 141.750 L 287.016 82 299.498 82 L 311.981 82 312.250 129.750 L 312.520 177.500 312.760 129.250 L 313 81 299.500 81 L 286 81 286.242 141.250 M 410.652 81.750 C 410.395 82.162, 415.190 82.358, 421.308 82.184 C 431.095 81.905, 432.600 82.085, 433.849 83.684 C 435.219 85.436, 435.247 85.435, 434.635 83.668 C 434.286 82.661, 434 81.648, 434 81.418 C 434 80.659, 411.128 80.984, 410.652 81.750 M 58 84 C 53.412 86.512, 54.626 86.524, 60.141 84.022 C 62.538 82.934, 63.825 82.053, 63 82.064 C 62.175 82.075, 59.925 82.946, 58 84 M 100 82.339 C 100 82.599, 102.025 83.502, 104.500 84.345 C 109.022 85.886, 110.957 85.683, 106.750 84.109 C 102.517 82.525, 100 81.865, 100 82.339 M 181.617 85.473 C 172.716 89.956, 166.660 94.676, 160.696 101.779 C 155.513 107.951, 149.564 119.356, 148.584 125 C 148.249 126.925, 149.243 125.077, 150.792 120.893 C 154.512 110.844, 158.801 104.351, 166.441 97.204 C 172.853 91.206, 178.970 87.266, 187 83.961 C 189.475 82.942, 190.825 82.086, 190 82.058 C 189.175 82.029, 185.402 83.566, 181.617 85.473 M 228.055 83.450 C 243.652 89.197, 255.259 99.665, 262.970 114.940 L 266.029 121 252.155 121 L 238.281 121 234.391 115.836 C 228.545 108.077, 221.412 104.705, 210.192 104.396 L 201.500 104.156 210.102 104.917 C 220.789 105.863, 226.417 108.446, 232.478 115.187 C 234.965 117.953, 237 120.618, 237 121.108 C 237 121.599, 243.750 122, 252 122 C 260.250 122, 267 121.731, 267 121.403 C 267 121.074, 265.098 117.137, 262.774 112.653 C 256.909 101.337, 247.258 91.755, 236.105 86.173 C 231.520 83.878, 227.033 82.032, 226.134 82.070 C 225.235 82.109, 226.100 82.730, 228.055 83.450 M 49.154 89.004 C 40.553 95.234, 35.875 105.096, 36.144 116.432 C 36.284 122.368, 36.303 122.324, 36.999 114.364 C 38.035 102.518, 41.578 96.033, 51 88.734 C 55.750 85.054, 54.317 85.263, 49.154 89.004 M 115.700 90.621 C 118.010 92.755, 121.273 96.726, 122.950 99.446 C 124.628 102.166, 125.998 103.966, 125.996 103.446 C 125.985 100.526, 119.347 92.054, 114.500 88.774 C 112.463 87.395, 112.848 87.988, 115.700 90.621 M 684.465 93 C 687.159 96.025, 689.568 98.725, 689.817 99 C 690.067 99.275, 689.796 98.600, 689.215 97.500 C 688.634 96.400, 686.225 93.700, 683.863 91.500 C 679.628 87.557, 679.636 87.578, 684.465 93 M 72.007 102.593 C 68.127 104.275, 64 107.783, 64 109.397 C 64 109.973, 64.702 109.442, 65.561 108.217 C 68.113 104.573, 73.015 102.648, 81.500 101.959 L 89.500 101.310 82.500 101.194 C 78.209 101.123, 74.149 101.664, 72.007 102.593 M 534.750 101.723 C 536.538 101.945, 539.462 101.945, 541.250 101.723 C 543.038 101.502, 541.575 101.320, 538 101.320 C 534.425 101.320, 532.962 101.502, 534.750 101.723 M 645.768 101.725 C 647.565 101.947, 650.265 101.943, 651.768 101.715 C 653.271 101.486, 651.800 101.304, 648.500 101.310 C 645.200 101.315, 643.971 101.502, 645.768 101.725 M 96.656 105.640 C 98.391 107.213, 100.290 109.400, 100.875 110.500 C 101.460 111.600, 101.953 111.998, 101.970 111.385 C 102.015 109.734, 98.166 105.151, 95.672 103.884 C 94.229 103.151, 94.558 103.740, 96.656 105.640 M 194.310 106.946 C 189.912 108.943, 181.583 116.042, 179.859 119.263 C 179.303 120.302, 181.533 118.467, 184.813 115.187 C 188.859 111.141, 192.502 108.561, 196.139 107.164 C 199.087 106.031, 200.825 105.091, 200 105.074 C 199.175 105.057, 196.614 105.900, 194.310 106.946 M 602.286 115.500 C 602.294 118.250, 602.488 119.256, 602.718 117.736 C 602.947 116.216, 602.941 113.966, 602.704 112.736 C 602.467 111.506, 602.279 112.750, 602.286 115.500 M 102.336 115 L 102.500 117.500 115.750 117.779 L 129 118.058 128.864 115.279 C 128.748 112.921, 128.662 112.841, 128.294 114.750 C 127.873 116.939, 127.524 117, 115.500 117 C 103.491 117, 103.125 116.936, 102.656 114.750 C 102.230 112.767, 102.192 112.797, 102.336 115 M 64.932 118.833 C 66.148 121.145, 75.114 126.020, 78 125.938 C 78.825 125.915, 77.185 125.006, 74.356 123.918 C 71.527 122.830, 67.973 120.715, 66.459 119.220 C 63.925 116.717, 63.803 116.686, 64.932 118.833 M 37.052 124.054 C 37.023 124.908, 38.160 127.936, 39.579 130.782 C 42.084 135.810, 46.900 140.499, 52 142.876 C 54.124 143.866, 54.207 143.850, 52.554 142.770 C 46.786 139.004, 40.917 132.413, 39.081 127.640 C 37.994 124.813, 37.081 123.199, 37.052 124.054 M 88.500 128.570 C 91.250 129.335, 94.175 129.930, 95 129.891 C 95.825 129.853, 94.250 129.195, 91.500 128.430 C 88.750 127.665, 85.825 127.070, 85 127.109 C 84.175 127.147, 85.750 127.805, 88.500 128.570 M 118.159 139.250 C 122.688 142.286, 125.429 145.059, 127.750 148.956 C 129.537 151.956, 131 153.920, 131 153.319 C 131 150.711, 124.057 142.241, 119.079 138.775 C 116.098 136.699, 113.244 135, 112.739 135 C 112.233 135, 114.672 136.912, 118.159 139.250 M 146.310 140.500 C 146.315 143.800, 146.502 145.029, 146.725 143.232 C 146.947 141.435, 146.943 138.735, 146.715 137.232 C 146.486 135.729, 146.304 137.200, 146.310 140.500 M 173.328 141.500 C 173.333 145.350, 173.513 146.802, 173.730 144.728 C 173.946 142.653, 173.943 139.503, 173.722 137.728 C 173.501 135.952, 173.324 137.650, 173.328 141.500 M 210.209 147.250 L 210.419 157.500 210.746 147.750 L 211.072 138 239.984 138 L 268.895 138 269.263 143.250 L 269.630 148.500 269.815 142.750 L 270 137 240 137 L 210 137 210.209 147.250 M 689.500 143 C 691.648 145.200, 693.631 147, 693.906 147 C 694.181 147, 692.648 145.200, 690.500 143 C 688.352 140.800, 686.369 139, 686.094 139 C 685.819 139, 687.352 140.800, 689.500 143 M 57 145.415 C 58.375 146.150, 60.625 147.031, 62 147.373 C 63.375 147.715, 62.700 147.130, 60.500 146.072 C 55.975 143.896, 53.170 143.370, 57 145.415 M 79.522 152.403 C 81.733 153.139, 85.108 154.009, 87.022 154.337 C 90.338 154.906, 90.313 154.872, 86.478 153.597 C 84.267 152.861, 80.892 151.991, 78.978 151.663 C 75.662 151.094, 75.687 151.128, 79.522 152.403 M 407.015 154.250 C 407.001 155.850, 408.304 155.981, 422.250 155.780 L 437.500 155.559 423.041 155.251 C 413.040 155.038, 408.343 154.566, 407.807 153.721 C 407.268 152.874, 407.026 153.035, 407.015 154.250 M 95.500 157.339 C 101.622 160.241, 103.649 162.429, 104.959 167.550 L 105.969 171.500 105.524 167.607 C 104.884 162.005, 100.118 157.440, 93 155.611 C 91.625 155.258, 92.750 156.035, 95.500 157.339 M 239.073 160.676 C 237.126 166.060, 229.362 173.341, 222.937 175.808 C 219.947 176.956, 218.199 177.919, 219.054 177.948 C 222.018 178.047, 230.889 172.865, 234.392 168.988 C 238.124 164.857, 242.600 157, 241.221 157 C 240.771 157, 239.804 158.654, 239.073 160.676 M 664.633 158.918 C 666.357 159.969, 668.494 161.867, 669.383 163.137 C 670.272 164.406, 671 164.942, 671 164.326 C 671 162.898, 664.325 156.999, 662.715 157.004 C 662.047 157.006, 662.910 157.867, 664.633 158.918 M 132.320 166 C 132.320 169.575, 132.502 171.037, 132.723 169.250 C 132.945 167.463, 132.945 164.537, 132.723 162.750 C 132.502 160.963, 132.320 162.425, 132.320 166 M 32.160 164.750 C 32.318 168.442, 32.326 168.450, 32.723 165.250 L 33.127 162 46.063 162 C 58.808 162, 59 162.033, 59.015 164.250 C 59.024 165.488, 59.487 167.175, 60.046 168 C 60.793 169.105, 60.899 168.710, 60.447 166.500 C 60.109 164.850, 59.660 162.938, 59.448 162.250 C 59.165 161.331, 55.484 161, 45.531 161 L 32 161 32.160 164.750 M 492 161.664 C 502.827 162.394, 515.004 162.439, 515.002 161.750 C 515.001 161.338, 508.813 161.081, 501.250 161.180 C 493.688 161.279, 489.525 161.497, 492 161.664 M 598.116 163.250 C 598.203 164.943, 598.345 165.067, 598.689 163.750 C 599.095 162.198, 600.599 162, 611.990 162 C 621.329 162, 624.971 162.341, 625.338 163.250 C 625.639 163.997, 625.874 163.795, 625.921 162.750 C 625.993 161.163, 624.697 161, 612 161 C 598.114 161, 598.001 161.018, 598.116 163.250 M 179.813 163.500 C 181.677 167.124, 192.008 176, 194.362 176 C 194.866 176, 193.529 174.855, 191.390 173.457 C 189.250 172.058, 185.539 168.795, 183.142 166.207 C 180.745 163.618, 179.247 162.400, 179.813 163.500 M 261.964 169.293 C 257.655 178.247, 247.222 189.143, 238 194.320 C 234.425 196.327, 231.895 197.976, 232.378 197.985 C 232.861 197.993, 235.786 196.573, 238.878 194.829 C 247.166 190.153, 258.809 177.941, 262.854 169.680 C 264.691 165.929, 266.022 162.688, 265.811 162.478 C 265.600 162.267, 263.869 165.334, 261.964 169.293 M 151.018 164.290 C 150.981 165.898, 155.384 173.595, 159.335 178.827 C 165.997 187.651, 178.963 196.965, 188 199.418 C 189.375 199.791, 186.900 198.353, 182.500 196.222 C 170.043 190.190, 160.908 181.405, 153.928 168.745 C 152.338 165.860, 151.028 163.855, 151.018 164.290 M 63.163 174 C 64.661 176.420, 71.466 180.991, 73.500 180.944 C 74.050 180.931, 73.150 180.210, 71.500 179.343 C 69.850 178.476, 66.951 176.357, 65.058 174.633 C 62.012 171.861, 61.794 171.788, 63.163 174 M 100.671 176.265 C 97.467 179.415, 97.260 179.839, 99.407 178.861 C 101.628 177.849, 105.762 173.124, 104.830 172.663 C 104.648 172.573, 102.777 174.194, 100.671 176.265 M 198.500 177.440 C 200.460 178.400, 204.274 178.869, 209.500 178.793 L 217.500 178.676 208.500 178.001 C 203.550 177.629, 198.600 177.020, 197.500 176.647 C 196.400 176.275, 196.850 176.631, 198.500 177.440 M 35.022 177.554 C 34.980 179.552, 40.673 187.508, 44.796 191.215 C 47.069 193.258, 51.179 196.071, 53.931 197.465 C 61.391 201.245, 61.482 200.484, 54.049 196.479 C 46.281 192.293, 41.860 188.177, 37.963 181.500 C 36.357 178.750, 35.034 176.974, 35.022 177.554 M 354.809 189.002 C 354.639 195.603, 354.837 201.003, 355.250 201.002 C 355.663 201.001, 356 195.600, 356 189 C 356 182.400, 355.801 177, 355.559 177 C 355.316 177, 354.979 182.401, 354.809 189.002 M 126.500 184.861 C 123.872 188.875, 120.146 192.259, 113.394 196.764 C 112.353 197.460, 112.989 197.322, 114.810 196.458 C 119.144 194.401, 125.412 188.687, 128.092 184.351 C 131.301 179.159, 129.950 179.592, 126.500 184.861 M 81.750 182.706 C 82.987 182.944, 85.013 182.944, 86.250 182.706 C 87.487 182.467, 86.475 182.272, 84 182.272 C 81.525 182.272, 80.513 182.467, 81.750 182.706 M 608.500 188.871 C 610.150 190.692, 612.850 193.114, 614.500 194.253 C 618.045 196.700, 617.244 195.835, 610.500 189.934 C 606.806 186.701, 606.284 186.424, 608.500 188.871 M 497.500 188.916 C 499.444 191.152, 505 195.496, 505 194.780 C 505 194.584, 502.863 192.667, 500.250 190.520 C 497.637 188.373, 496.400 187.651, 497.500 188.916 M 225 199.683 C 222.525 200.499, 215.775 201.512, 210 201.933 L 199.500 202.698 207.500 202.834 C 215.144 202.964, 226.394 201.043, 229.867 199.015 C 232.149 197.682, 230.292 197.937, 225 199.683 M 65.500 201.953 C 67.420 202.823, 72.776 203.390, 71.917 202.633 C 71.688 202.431, 69.700 201.991, 67.500 201.656 C 64.712 201.232, 64.106 201.322, 65.500 201.953 M 77.750 203.737 C 80.638 203.939, 85.362 203.939, 88.250 203.737 C 91.138 203.535, 88.775 203.370, 83 203.370 C 77.225 203.370, 74.862 203.535, 77.750 203.737 M 531.264 203.718 C 532.784 203.947, 535.034 203.941, 536.264 203.704 C 537.494 203.467, 536.250 203.279, 533.500 203.286 C 530.750 203.294, 529.744 203.488, 531.264 203.718 M 542.750 203.706 C 543.987 203.944, 546.013 203.944, 547.250 203.706 C 548.487 203.467, 547.475 203.272, 545 203.272 C 542.525 203.272, 541.513 203.467, 542.750 203.706 M 641.750 203.706 C 642.987 203.944, 645.013 203.944, 646.250 203.706 C 647.487 203.467, 646.475 203.272, 644 203.272 C 641.525 203.272, 640.513 203.467, 641.750 203.706 M 653.264 203.718 C 654.784 203.947, 657.034 203.941, 658.264 203.704 C 659.494 203.467, 658.250 203.279, 655.500 203.286 C 652.750 203.294, 651.744 203.488, 653.264 203.718" stroke="none" fill="#cea9f3" fill-rule="evenodd"/><path d="M 67.897 81.527 C 49.187 86.069, 38.247 97.476, 37.217 113.516 C 36.636 122.569, 38.809 129.676, 43.870 135.278 C 50.454 142.565, 57.582 145.875, 78.710 151.452 C 85.976 153.370, 93.626 155.652, 95.710 156.523 C 108.243 161.758, 109.227 173.775, 97.611 179.725 C 93.419 181.872, 91.062 182.357, 84.500 182.421 C 77.521 182.490, 75.734 182.117, 70.500 179.500 C 65.566 177.033, 64.015 175.611, 61.773 171.500 C 60.274 168.750, 59.036 165.488, 59.023 164.250 C 59 162.033, 58.808 162, 46 162 L 33 162 33.012 164.750 C 33.047 172.991, 38.399 184.417, 45.027 190.406 C 54.140 198.638, 67.405 202.970, 83.500 202.970 C 105.404 202.970, 121.913 195.023, 128.694 181.214 C 131.201 176.110, 131.500 174.433, 131.500 165.500 C 131.500 156.284, 131.267 155.080, 128.534 150.144 C 122.781 139.759, 114.058 134.964, 90.017 128.974 C 71.525 124.366, 66.711 122.277, 64.432 117.869 C 58.675 106.735, 74.620 97.435, 91.453 102.109 C 96.622 103.544, 101.653 108.635, 102.532 113.321 L 103.223 117 115.725 117 L 128.227 117 127.557 112.250 C 126.581 105.328, 122.293 97.163, 116.844 91.852 C 106.878 82.137, 84.676 77.454, 67.897 81.527 M 195.194 81.528 C 181.051 84.599, 164.928 95.868, 156.882 108.308 C 154.816 111.502, 151.866 117.802, 150.327 122.308 C 146.602 133.209, 146.360 147.819, 149.728 158.500 C 154.886 174.855, 166.301 188.143, 181.500 195.484 C 191.844 200.481, 198.114 202, 208.389 202 C 236.043 202, 259.909 183.149, 267.174 155.568 C 268.178 151.755, 269 146.242, 269 143.318 L 269 138 240 138 L 211 138 211 147.572 C 211 156.885, 211.061 157.138, 213.250 156.961 C 214.488 156.861, 221.472 156.828, 228.770 156.889 L 242.041 157 239.977 161.045 C 234.299 172.176, 224.743 178.110, 211.366 178.812 C 204.423 179.176, 201.996 178.868, 196.961 176.985 C 171.454 167.446, 164.939 132.361, 185.162 113.445 C 192.758 106.340, 197.671 104.502, 209.063 104.501 C 217.798 104.500, 219.139 104.767, 224.563 107.586 C 228.643 109.707, 231.717 112.287, 234.391 115.836 L 238.281 121 252.155 121 L 266.029 121 262.970 114.940 C 258.298 105.685, 253.477 99.552, 246.528 94.022 C 231.614 82.155, 213.081 77.645, 195.194 81.528 M 526 80.611 C 521.507 81.431, 511.581 85.240, 507.926 87.547 C 502.243 91.134, 497.869 96.054, 495.083 101.994 C 492.917 106.611, 492.509 108.872, 492.558 116 C 492.689 135.108, 501.612 142.828, 533.610 151.515 C 551.771 156.446, 556.793 158.687, 559.340 162.999 C 565.250 173.004, 555.858 181.970, 539.446 181.990 C 526.389 182.006, 518.555 176.989, 515.509 166.660 L 514.282 162.500 501.048 162.220 L 487.814 161.941 488.488 166.220 C 490.898 181.536, 497.250 190.518, 510.500 197.344 C 518.460 201.444, 526.367 203.069, 538.500 203.095 C 561.766 203.147, 577.018 195.838, 584.229 181.182 C 587.205 175.135, 587.497 173.721, 587.463 165.518 C 587.379 145.272, 578.050 136.922, 546.742 129.065 C 538.359 126.962, 529.579 124.459, 527.231 123.504 C 518.521 119.961, 516.343 112.457, 522.297 106.503 C 532.154 96.646, 555.349 100.685, 557.594 112.650 C 557.932 114.454, 558.789 116.410, 559.498 116.998 C 560.294 117.659, 565.129 117.959, 572.143 117.784 L 583.500 117.500 583.172 113.154 C 582.120 99.229, 572.085 87.734, 556.604 82.724 C 550.647 80.796, 532.034 79.511, 526 80.611 M 633.348 81.420 C 620.890 84.442, 610.635 91.971, 605.963 101.526 C 600.606 112.482, 602.718 128.150, 610.652 136.318 C 617.494 143.362, 624.952 146.664, 646.132 152.025 C 666.287 157.128, 671.500 160.513, 671.500 168.500 C 671.500 173.632, 668.695 177.251, 662.500 180.110 C 657.750 182.302, 645.888 182.644, 639.616 180.770 C 633.810 179.035, 627.635 172.579, 626.153 166.694 L 624.971 162 611.857 162 L 598.742 162 599.417 167.085 C 600.647 176.362, 603.856 183.016, 610.117 189.277 C 619.639 198.799, 631.587 203.054, 649 203.126 C 671.404 203.219, 688.277 195.388, 694.827 181.858 C 698.044 175.211, 699.247 167.264, 698.107 160.184 C 695.419 143.492, 685.531 136.009, 656.673 128.827 C 634.130 123.217, 630 120.748, 630 112.881 C 630 105.487, 639.858 100.252, 651.722 101.346 C 661.489 102.246, 667.010 106.166, 668.556 113.297 C 668.939 115.059, 669.757 116.831, 670.376 117.235 C 670.994 117.639, 676.563 117.976, 682.750 117.985 L 694 118 694 114.038 C 694 99.355, 680.234 85.277, 662.122 81.438 C 654.073 79.732, 640.342 79.723, 633.348 81.420 M 287 141.513 L 287 201.027 320.750 200.763 L 354.500 200.500 354.782 188.750 L 355.063 177 333.532 177 L 312 177 312 129.500 L 312 82 299.500 82 L 287 82 287 141.513 M 409.920 84.717 C 409.370 86.248, 398.647 112.700, 386.090 143.500 C 373.534 174.300, 363.576 199.852, 363.962 200.281 C 364.347 200.711, 370.476 200.936, 377.581 200.781 L 390.500 200.500 394.880 188.750 L 399.261 177 422.380 177.001 L 445.500 177.001 449.582 188.751 L 453.664 200.500 467.332 200.778 C 474.849 200.931, 481 200.705, 481 200.276 C 481 199.846, 470.312 173.171, 457.248 140.998 L 433.496 82.500 422.208 82.217 L 410.919 81.934 409.920 84.717 M 421.693 113.687 C 420.887 114.991, 407 154.157, 407 155.126 C 407 155.607, 413.750 156, 422 156 C 432.136 156, 437 155.647, 437 154.913 C 437 153.917, 423.062 113.909, 422.462 113.183 C 422.318 113.009, 421.972 113.236, 421.693 113.687" stroke="none" fill="#b26df9" fill-rule="evenodd"/></svg>